<svg id="SvgjsSvg1001" width="288" height="288" xmlns="http://www.w3.org/2000/svg" version="1.1" xmlns:xlink="http://www.w3.org/1999/xlink" xmlns:svgjs="http://svgjs.com/svgjs"><defs id="SvgjsDefs1002"></defs><g id="SvgjsG1008" transform="matrix(1,0,0,1,0,0)"><svg xmlns="http://www.w3.org/2000/svg" width="288" height="288" enable-background="new 0 0 371.333 371.333" viewBox="0 0 371.333 371.333"><path d="M182.234 202.298L14.637 257.741c28.211 66.582 94.165 113.291 171.03 113.291 50.271 0 95.867-19.988 129.298-52.439L182.234 202.298zM170.667.301C75.142 7.939 0 87.873 0 185.365c0 15.12 1.821 29.815 5.232 43.889l165.435-54.727V.301zM311.888 49.217C282.194 21.674 243.481 3.726 200.667.301v150.946L311.888 49.217zM334.749 296.041c22.982-30.907 36.584-69.202 36.584-110.676 0-42.997-14.621-82.576-39.155-114.049L208.136 185.107 334.749 296.041z" fill="#ffffff" class="color000 svgShape"></path></svg></g></svg>